<?xml version="1.0" encoding="UTF-8" standalone="no"?>
<svg width="297px" height="88px" viewBox="0 0 297 88" version="1.1" xmlns="http://www.w3.org/2000/svg" xmlns:xlink="http://www.w3.org/1999/xlink">
    <!-- Generator: Sketch 3.6.1 (26313) - http://www.bohemiancoding.com/sketch -->
    <title>watermark-large-black</title>
    <desc>Created with Sketch.</desc>
    <defs></defs>
    <g id="Page-1" stroke="none" stroke-width="1" fill="none" fill-rule="evenodd">
        <g id="watermark-large-black" transform="translate(0.000000, -1.000000)" fill="#000000">
            <path d="M0,6.15163063 C0,3.39143048 2.24026647,1.15384615 4.99496778,1.15384615 L110.389648,1.15384615 C113.148292,1.15384615 115.384615,3.38747352 115.384615,6.15163063 L115.384615,83.8483694 C115.384615,86.6085695 113.144349,88.8461538 110.389648,88.8461538 L4.99496778,88.8461538 C2.23632325,88.8461538 0,86.6125265 0,83.8483694 L0,6.15163063 Z M30.2584615,20.5846154 C36.0677214,20.5846154 40.2892176,20.9415349 42.9230769,21.6553846 C45.5569362,22.3692343 47.4399943,23.2184566 48.5723077,24.2030769 C51.0830895,26.3692416 52.3384615,29.6922853 52.3384615,34.1723077 C52.3384615,37.5200167 50.5415564,40.6953696 46.9476923,43.6984615 C51.5261767,46.0123193 53.8153846,50.3199685 53.8153846,56.6215385 C53.8153846,61.54464 52.203093,65.1999881 48.9784615,67.5876923 C45.75383,69.9753966 40.9415705,71.2923065 34.5415385,71.5384615 L13.4953846,71.5384615 L12.7569231,65.4092308 C13.3969263,64.5723035 14.7507589,63.7600039 16.8184615,62.9723077 L16.8184615,29.2246154 C14.7999899,28.4861502 13.4461573,27.6492354 12.7569231,26.7138462 L13.4953846,20.5846154 L30.2584615,20.5846154 Z M34.0246154,49.4584615 L27.4523077,49.4584615 L27.4523077,63.4892308 L32.5476923,63.4892308 C35.8954014,63.4892308 38.4307606,62.996928 40.1538462,62.0123077 C41.8769317,61.0276874 42.7384615,59.2553974 42.7384615,56.6953846 C42.7384615,54.1353718 42.0615452,52.2892364 40.7076923,51.1569231 C39.3538394,50.0246097 37.1261694,49.4584615 34.0246154,49.4584615 Z M31.2923077,28.6338462 L27.4523077,28.6338462 L27.4523077,41.4092308 L33.5076923,41.4092308 C36.0184741,41.4092308 37.9384549,40.7692372 39.2676923,39.4892308 C40.5969297,38.2092244 41.2615385,36.6461631 41.2615385,34.8 C41.2615385,32.9538369 40.7938508,31.5630816 39.8584615,30.6276923 C38.9230722,29.692303 37.8400062,29.1261548 36.6092308,28.9292308 C35.3784554,28.7323067 33.6061654,28.6338462 31.2923077,28.6338462 Z M58.7630769,34.6153846 C61.5200138,33.9753814 64.0799882,33.6553846 66.4430769,33.6553846 C68.8061657,33.6553846 70.7999919,33.72923 72.4246154,33.8769231 L72.4246154,63.3415385 C74.344625,64.0800037 75.6984576,64.9169184 76.4861538,65.8523077 L75.7476923,71.5384615 L58.7630769,71.5384615 L58.0246154,65.8523077 C58.7138496,64.9169184 60.0676822,64.0800037 62.0861538,63.3415385 L62.0861538,42.8123077 C60.3630683,42.2215355 59.0092357,41.3846208 58.0246154,40.3015385 L58.7630769,34.6153846 Z M60.9784615,23.9446154 C60.9784615,20.2276737 63.0338256,18.3692308 67.1446154,18.3692308 C71.2554052,18.3692308 73.3107692,20.2276737 73.3107692,23.9446154 C73.3107692,27.661557 71.2554052,29.52 67.1446154,29.52 C63.0338256,29.52 60.9784615,27.661557 60.9784615,23.9446154 Z M92.88,25.3107692 L92.88,34.6153846 L103.44,34.6153846 L103.44,40.8184615 L92.88,40.8184615 L92.88,59.5015385 C92.88,61.076931 93.1015362,62.2215349 93.5446154,62.9353846 C93.9876945,63.6492343 95.0461455,64.0061538 96.72,64.0061538 C98.3938545,64.0061538 100.19076,63.6369268 102.110769,62.8984615 L104.326154,68.6584615 C100.535366,70.5784711 96.6584814,71.5384615 92.6953846,71.5384615 C88.7322879,71.5384615 86.0492378,70.6892393 84.6461538,68.9907692 C83.2430699,67.2922992 82.5415385,64.8184778 82.5415385,61.5692308 L82.5415385,40.8184615 L79.2184615,40.8184615 L78.4061538,36.3138462 C79.1938501,35.3784569 80.8184492,34.4430816 83.28,33.5076923 C83.8707722,29.470749 85.2738351,26.7384687 87.4892308,25.3107692 L92.88,25.3107692 Z" id="Rectangle-2"></path>
            <text id="Press" font-family="PatuaOne-Regular, Patua One" font-size="73.8461538" font-weight="normal">
                <tspan x="123.461538" y="72">Press</tspan>
            </text>
        </g>
    </g>
</svg>